PathFileType  4	(X/Y/Z) C:\Users\wagnerel85475\Documents\Thesis\opencap-core\Data\3375ffbc-daeb-4a43-b4f7-ac9899cd4c71\MarkerData\PreAugmentation
DataRate	CameraRate	NumFrames	NumMarkers	Units	OrigDataRate	OrigDataStartFrame	OrigNumFrames
60.0	60.0	19	20	m	60.0	1	897
Frame#	Time	Neck			RShoulder			RElbow			RWrist			LShoulder			LElbow			LWrist			midHip			RHip			RKnee			RAnkle			LHip			LKnee			LAnkle			LBigToe			LSmallToe			LHeel			RBigToe			RSmallToe			RHeel			
		X1	Y1	Z1	X2	Y2	Z2	X3	Y3	Z3	X4	Y4	Z4	X5	Y5	Z5	X6	Y6	Z6	X7	Y7	Z7	X8	Y8	Z8	X9	Y9	Z9	X10	Y10	Z10	X11	Y11	Z11	X12	Y12	Z12	X13	Y13	Z13	X14	Y14	Z14	X15	Y15	Z15	X16	Y16	Z16	X17	Y17	Z17	X18	Y18	Z18	X19	Y19	Z19	X20	Y20	Z20	

1	0.0000000	0.6571300	1.3796600	-0.1089600	0.6753000	1.3651100	0.0745800	0.6523000	1.0540400	0.1353900	0.7297700	0.7654700	0.2035100	0.6553800	1.4081100	-0.2701600	0.8123000	1.5658000	-0.4967700	0.9290100	1.8475900	-0.4944900	0.7138600	0.8158700	-0.1038300	0.7005800	0.8135100	0.0147500	0.6254900	0.3082200	0.0401300	0.5623600	-0.1905100	0.0846800	0.7258500	0.8214900	-0.2185200	0.6062500	0.3059200	-0.2228000	0.6082000	-0.1684100	-0.2831200	0.8088400	-0.2274000	-0.3489600	0.7582200	-0.2281500	-0.3902700	0.5609300	-0.2232600	-0.2609900	0.7638800	-0.2403400	0.1352900	0.7259900	-0.2246900	0.1827500	0.5387400	-0.2283100	0.0713700
2	0.0166667	0.6573400	1.3799500	-0.1091200	0.6755000	1.3651900	0.0745200	0.6528400	1.0541100	0.1355300	0.7295800	0.7653000	0.2036000	0.6654200	1.4143200	-0.2739700	0.8196800	1.5838500	-0.4923800	0.9131000	1.8641400	-0.4871800	0.7061400	0.8148900	-0.0997800	0.7005600	0.8137200	0.0148000	0.6254000	0.3081100	0.0401500	0.5617000	-0.1868100	0.0853000	0.7259100	0.8213800	-0.2184400	0.6156400	0.3125500	-0.2187600	0.6082000	-0.1683700	-0.2831100	0.8091700	-0.2271800	-0.3486500	0.7584300	-0.2247000	-0.3897200	0.5606900	-0.2232300	-0.2609800	0.7637100	-0.2402500	0.1353300	0.7253300	-0.2248000	0.1826000	0.5388400	-0.2279100	0.0713300
3	0.0333333	0.6572300	1.3797600	-0.1091000	0.6753300	1.3650400	0.0745400	0.6523600	1.0540800	0.1352800	0.7296500	0.7654100	0.2034500	0.6650200	1.4217900	-0.2740900	0.8192100	1.5944600	-0.4764200	0.9027900	1.8753300	-0.4682100	0.7138000	0.8158700	-0.1038600	0.7003900	0.8174400	0.0149600	0.6255200	0.3083600	0.0401500	0.5616800	-0.1866700	0.0853100	0.7257500	0.8214000	-0.2185800	0.6154600	0.3123000	-0.2188500	0.6082000	-0.1684100	-0.2831200	0.8087900	-0.2273800	-0.3489900	0.7582300	-0.2281200	-0.3902700	0.5609200	-0.2231800	-0.2609800	0.7718300	-0.2373300	0.1309100	0.7163100	-0.2281300	0.1798800	0.5387100	-0.2282700	0.0713500
4	0.0500000	0.6572800	1.3800900	-0.1091200	0.6755000	1.3652200	0.0745100	0.6529600	1.0541500	0.1354700	0.7294000	0.7652300	0.2035200	0.6650400	1.4217500	-0.2739300	0.8093000	1.6055000	-0.4646900	0.9021700	1.8826700	-0.4527400	0.7143500	0.8158000	-0.1037500	0.7006200	0.8137200	0.0147900	0.6253800	0.3080700	0.0401600	0.5616800	-0.1867800	0.0852900	0.7259700	0.8213200	-0.2184600	0.6064200	0.3061000	-0.2227300	0.6082000	-0.1683700	-0.2831100	0.8092000	-0.2271600	-0.3486200	0.7582000	-0.2281200	-0.3902800	0.5607000	-0.2233000	-0.2609900	0.7637100	-0.2402700	0.1353200	0.7253400	-0.2248000	0.1825900	0.5388300	-0.2278400	0.0713100
5	0.0666667	0.6573400	1.3798100	-0.1088900	0.6753700	1.3651600	0.0745300	0.6524000	1.0539600	0.1352800	0.7294000	0.7653600	0.2033700	0.6647900	1.4218400	-0.2660000	0.8011300	1.6067300	-0.4612600	0.9094400	1.8880300	-0.4487600	0.7138600	0.8158700	-0.1039200	0.7004600	0.8174600	0.0148800	0.6254300	0.3082800	0.0401500	0.5616600	-0.1867000	0.0853200	0.7258200	0.8214300	-0.2186100	0.6062500	0.3058700	-0.2228200	0.6084600	-0.1646800	-0.2825700	0.8088000	-0.2273300	-0.3489700	0.7582400	-0.2281000	-0.3902600	0.5608400	-0.2232700	-0.2610100	0.7638500	-0.2403100	0.1353000	0.7260400	-0.2246700	0.1827600	0.5387100	-0.2282600	0.0713600
6	0.0833333	0.6573200	1.3800500	-0.1089300	0.6754800	1.3652400	0.0744900	0.6529600	1.0540400	0.1354000	0.7293100	0.7650600	0.2034400	0.6649100	1.4216500	-0.2658200	0.7914700	1.6182700	-0.4577300	0.9086100	1.9026800	-0.4491900	0.7142700	0.8158100	-0.1038200	0.7003400	0.8176500	0.0149100	0.6252300	0.3080900	0.0402200	0.5616500	-0.1869200	0.0853100	0.7260000	0.8180300	-0.2183400	0.6064100	0.3059200	-0.2227400	0.6081700	-0.1684000	-0.2831300	0.8090400	-0.2271600	-0.3486200	0.7580800	-0.2280800	-0.3902700	0.5605400	-0.2232100	-0.2610400	0.7636200	-0.2402400	0.1353600	0.7253000	-0.2248100	0.1826300	0.5388400	-0.2307000	0.0718800
7	0.1000000	0.6573000	1.3799400	-0.1089800	0.6754500	1.3651000	0.0745200	0.6524500	1.0538700	0.1351700	0.7295800	0.7613200	0.2030800	0.6554200	1.4295500	-0.2699600	0.7984700	1.6329700	-0.4539200	0.9000300	1.9147200	-0.4453500	0.7139100	0.8157700	-0.1039300	0.7008400	0.8135300	0.0146800	0.6253400	0.3082200	0.0401800	0.5616400	-0.1868000	0.0853500	0.7257900	0.8212500	-0.2186400	0.6062600	0.3057800	-0.2227900	0.6089300	-0.1608800	-0.2820300	0.8093100	-0.2239200	-0.3483400	0.7589500	-0.2211600	-0.3890700	0.5517400	-0.2265500	-0.2647900	0.7635900	-0.2403700	0.1353000	0.7160900	-0.2282000	0.1799000	0.5388200	-0.2264800	0.0725300
8	0.1166667	0.6571100	1.3840400	-0.1092200	0.6755900	1.3650500	0.0744600	0.6529900	1.0539300	0.1352900	0.7294400	0.7611800	0.2031600	0.6649100	1.4292400	-0.2739100	0.7901300	1.6474100	-0.4498500	0.8914900	1.9303600	-0.4338400	0.7144100	0.8158700	-0.1038800	0.7007600	0.8137400	0.0146700	0.6254100	0.3081100	0.0401300	0.5616000	-0.1868300	0.0853100	0.7172700	0.8203500	-0.2222600	0.6064200	0.3060800	-0.2227100	0.6084300	-0.1646500	-0.2825700	0.8096600	-0.2237200	-0.3479700	0.7584400	-0.2246500	-0.3896500	0.5515900	-0.2265800	-0.2647800	0.7635600	-0.2402500	0.1353400	0.7154900	-0.2282900	0.1797500	0.5389300	-0.2260200	0.0724700
9	0.1333333	0.6655300	1.3836700	-0.1131700	0.6755400	1.3650300	0.0745000	0.6522500	1.0505900	0.1352500	0.7294600	0.7582300	0.2032300	0.6649800	1.4327200	-0.2738900	0.7984400	1.6572300	-0.4454300	0.8825400	1.9383600	-0.4300600	0.7139400	0.8159200	-0.1040100	0.7006800	0.8175200	0.0148000	0.6254800	0.3082800	0.0400700	0.5615500	-0.1866300	0.0853200	0.7171200	0.8204900	-0.2223900	0.6154600	0.3080900	-0.2268100	0.6084000	-0.1646900	-0.2825800	0.8093200	-0.2239000	-0.3483300	0.7585100	-0.2246700	-0.3896300	0.5517200	-0.2265400	-0.2647900	0.7717500	-0.2372700	0.1309000	0.7162600	-0.2281100	0.1798500	0.5384900	-0.2236800	0.0719500
10	0.1500000	0.6568800	1.3842500	-0.1093600	0.6756500	1.3651100	0.0744000	0.6428700	1.0533700	0.1320100	0.7292900	0.7580500	0.2032500	0.6557800	1.4330500	-0.2700300	0.7977100	1.6643600	-0.4449500	0.8489600	1.9440400	-0.4161000	0.7143300	0.8158100	-0.1039300	0.7005100	0.8176900	0.0148500	0.6254200	0.3080700	0.0401100	0.5615900	-0.1866000	0.0852900	0.7172700	0.8169500	-0.2221600	0.6248500	0.3145200	-0.2227700	0.6084100	-0.1646500	-0.2825600	0.8097000	-0.2237800	-0.3480000	0.7584300	-0.2246700	-0.3896700	0.5515900	-0.2265600	-0.2647500	0.7634800	-0.2402800	0.1352700	0.7155400	-0.2282500	0.1797000	0.5386800	-0.2231700	0.0718800
11	0.1666667	0.6657400	1.3870600	-0.1132800	0.6755900	1.3650900	0.0744800	0.6421700	1.0532900	0.1318800	0.7200400	0.7601900	0.2000300	0.6647800	1.4331300	-0.2740600	0.7899100	1.6688500	-0.4414500	0.8481100	1.9506500	-0.4156800	0.7137500	0.8158900	-0.1040500	0.7004700	0.8175500	0.0148300	0.6257700	0.3113400	0.0397000	0.5615600	-0.1865300	0.0853100	0.7171600	0.8170800	-0.2223000	0.6246100	0.3142600	-0.2228200	0.6083600	-0.1647200	-0.2825800	0.8093000	-0.2239500	-0.3483700	0.7584400	-0.2246300	-0.3896700	0.5517100	-0.2265700	-0.2647700	0.7716300	-0.2373400	0.1308600	0.7162300	-0.2281300	0.1798200	0.5385200	-0.2235500	0.0719100
12	0.1833333	0.6660000	1.3874400	-0.1133600	0.6758000	1.3652300	0.0744300	0.6427300	1.0534300	0.1320000	0.7196600	0.7639400	0.2003300	0.6651700	1.4330500	-0.2739600	0.7972100	1.6682000	-0.4369400	0.8397000	1.9595000	-0.4123700	0.7142700	0.8158200	-0.1039500	0.7004000	0.8145800	0.0150600	0.6257400	0.3112000	0.0396600	0.5615800	-0.1865900	0.0852900	0.7173000	0.8169300	-0.2222000	0.6064400	0.3060500	-0.2227200	0.6083800	-0.1646900	-0.2825700	0.8096900	-0.2237800	-0.3480200	0.7583900	-0.2246400	-0.3897000	0.5515700	-0.2265900	-0.2647500	0.7714800	-0.2372800	0.1308400	0.7155800	-0.2282600	0.1796300	0.5386200	-0.2204300	0.0713000
13	0.2000000	0.6659900	1.3870700	-0.1131700	0.6755800	1.3651700	0.0745200	0.6421500	1.0532900	0.1318600	0.7199300	0.7570300	0.2002100	0.6649700	1.4332200	-0.2738300	0.7887600	1.6762600	-0.4333700	0.8385300	1.9736300	-0.4121900	0.7139200	0.8158200	-0.1041200	0.7005900	0.8174800	0.0147200	0.6254200	0.3083000	0.0400500	0.5615300	-0.1865200	0.0853200	0.7173100	0.8170200	-0.2222900	0.6062400	0.3056500	-0.2228200	0.6083200	-0.1647400	-0.2825600	0.8093100	-0.2239500	-0.3483800	0.7584400	-0.2245600	-0.3896900	0.5419500	-0.2299700	-0.2607900	0.7717500	-0.2373300	0.1307800	0.7244500	-0.2251600	0.1752800	0.5383200	-0.2236100	0.0719900
14	0.2166667	0.6660100	1.3874900	-0.1132800	0.6756400	1.3624500	0.0744400	0.6425600	1.0502000	0.1320800	0.7197200	0.7568000	0.2002900	0.6556900	1.4371100	-0.2699500	0.7690000	1.6926800	-0.4187600	0.8303900	1.9894500	-0.4088900	0.7049800	0.8147300	-0.1076200	0.7003300	0.8176600	0.0148100	0.6252900	0.3080300	0.0400700	0.5615900	-0.1865500	0.0852900	0.7172300	0.8167900	-0.2222000	0.6061300	0.3017600	-0.2231100	0.6083200	-0.1647300	-0.2825300	0.8097400	-0.2238100	-0.3480200	0.7584100	-0.2245600	-0.3897200	0.5417800	-0.2300100	-0.2607500	0.7797600	-0.2343200	0.1263700	0.7240100	-0.2253000	0.1750300	0.5384800	-0.2204400	0.0713700
15	0.2333333	0.6654100	1.3909900	-0.1132500	0.6756000	1.3651700	0.0745200	0.6421200	1.0532900	0.1318200	0.7199500	0.7569200	0.2001100	0.6642500	1.4370200	-0.2660400	0.7599300	1.6977300	-0.4152600	0.8210300	1.9911500	-0.4051600	0.7139500	0.8123700	-0.1038600	0.7005100	0.8142800	0.0149900	0.6257400	0.3113300	0.0396600	0.5615800	-0.1865500	0.0853000	0.7175900	0.8136000	-0.2221000	0.6061600	0.3058200	-0.2228300	0.6082900	-0.1647600	-0.2825400	0.8093100	-0.2239300	-0.3483900	0.7584500	-0.2245700	-0.3896900	0.5418900	-0.2300400	-0.2607700	0.7799900	-0.2343200	0.1263300	0.7328700	-0.2221400	0.1706700	0.5383200	-0.2209300	0.0714300
16	0.2500000	0.6655400	1.3912900	-0.1133400	0.6757800	1.3652600	0.0744300	0.6426100	1.0501300	0.1320800	0.7275000	0.7576800	0.1958100	0.6645900	1.4368400	-0.2660400	0.7588700	1.7086000	-0.4074800	0.8216000	1.9985400	-0.4052800	0.7145800	0.8161200	-0.1035800	0.7003900	0.8145100	0.0150500	0.6257100	0.3111400	0.0396700	0.5615500	-0.1865600	0.0852700	0.7176400	0.8134400	-0.2219700	0.6156200	0.3083000	-0.2266900	0.6083400	-0.1647000	-0.2825000	0.8096300	-0.2237800	-0.3480000	0.7587800	-0.2210600	-0.3891400	0.5417500	-0.2300300	-0.2607400	0.7798900	-0.2373000	0.1269900	0.7323700	-0.2252400	0.1711000	0.5383400	-0.2204800	0.0713900
17	0.2666667	0.6655800	1.3909800	-0.1132700	0.6756500	1.3652400	0.0745000	0.6419400	1.0500800	0.1319500	0.7278100	0.7578700	0.1956400	0.6644200	1.4370400	-0.2660700	0.7591500	1.7123900	-0.3996900	0.8124200	2.0030000	-0.4011200	0.7140500	0.8161700	-0.1036800	0.7004800	0.8143900	0.0150000	0.6257700	0.3113100	0.0396700	0.5614900	-0.1864700	0.0852800	0.7176100	0.8135300	-0.2220700	0.6246200	0.3141600	-0.2228400	0.6088700	-0.1609300	-0.2819700	0.8092600	-0.2239500	-0.3483700	0.7588600	-0.2210600	-0.3891100	0.5419500	-0.2299900	-0.2607500	0.7800200	-0.2343100	0.1263300	0.7328900	-0.2221300	0.1706500	0.5278900	-0.2242600	0.0682200
18	0.2833333	0.6657400	1.3913000	-0.1133600	0.6758100	1.3653000	0.0744300	0.6506400	1.0505100	0.1277200	0.7276300	0.7576200	0.1957100	0.6646700	1.4368900	-0.2660100	0.7588400	1.7156200	-0.3990500	0.7954200	2.0064900	-0.3939300	0.7051600	0.8152400	-0.1072000	0.7001700	0.8146100	0.0151200	0.6255700	0.3112500	0.0397500	0.5615600	-0.1865400	0.0852700	0.7178900	0.8172000	-0.2218800	0.6071200	0.3030600	-0.2223500	0.6089600	-0.1609200	-0.2820100	0.8098100	-0.2237300	-0.3480700	0.7584700	-0.2246200	-0.3897400	0.5517500	-0.2266400	-0.2648000	0.7801100	-0.2380200	0.1257000	0.7322100	-0.2222700	0.1705200	0.5191300	-0.2270700	0.0726400
19	0.3000000	0.6657600	1.3910200	-0.1132100	0.6757000	1.3651200	0.0745100	0.6418000	1.0499100	0.1319100	0.7278000	0.7577700	0.1955800	0.6645600	1.4371800	-0.2659500	0.7672700	1.7187700	-0.3952100	0.7855600	2.0113200	-0.3905700	0.7140400	0.8161400	-0.1037000	0.7004600	0.8143500	0.0150200	0.6256400	0.3112500	0.0397200	0.5617200	-0.1866900	0.0853200	0.7176800	0.8134800	-0.2221600	0.6059900	0.3013100	-0.2231500	0.6088900	-0.1607400	-0.2820000	0.8175100	-0.2208900	-0.3446500	0.7587400	-0.2245600	-0.3896100	0.5516000	-0.2265000	-0.2648500	0.7898000	-0.2345400	0.1287500	0.7246900	-0.2251200	0.1752100	0.5300900	-0.2286500	0.0752700
